<svg id="svg" version="1.1" xmlns="http://www.w3.org/2000/svg" xmlns:xlink="http://www.w3.org/1999/xlink" width="400" height="400" viewBox="0, 0, 400,400"><g id="svgg"><path id="path0" d="M202.800 82.024 C 202.800 82.917,202.945 83.558,203.123 83.448 C 203.432 83.256,203.277 80.400,202.956 80.400 C 202.870 80.400,202.800 81.131,202.800 82.024 M214.398 85.088 C 212.605 91.254,207.048 91.929,205.507 86.168 C 204.838 83.666,204.400 84.393,204.400 88.005 C 204.400 90.963,204.334 91.208,203.351 91.881 C 198.106 95.476,194.452 105.289,197.149 108.538 C 197.738 109.248,196.435 113.668,195.448 114.309 C 195.201 114.469,194.808 114.948,194.573 115.373 C 194.339 115.799,193.889 116.281,193.573 116.445 C 191.258 117.650,189.036 118.357,186.846 118.586 C 185.442 118.732,183.896 119.112,183.412 119.429 C 182.928 119.746,181.017 120.195,179.166 120.426 C 177.315 120.657,175.388 121.114,174.885 121.442 C 174.381 121.770,172.544 122.201,170.803 122.400 C 169.061 122.598,167.095 123.040,166.434 123.382 C 165.774 123.724,163.849 124.196,162.157 124.431 C 160.466 124.667,158.697 125.111,158.228 125.419 C 157.758 125.726,156.068 126.163,154.472 126.390 C 152.876 126.616,151.148 127.078,150.633 127.415 C 150.118 127.753,148.552 128.213,147.153 128.439 C 145.754 128.664,144.319 129.112,143.963 129.434 C 143.607 129.756,142.209 130.214,140.858 130.453 C 139.506 130.691,138.400 131.024,138.400 131.194 C 138.400 131.540,136.804 132.202,135.032 132.592 C 134.389 132.734,133.420 133.198,132.878 133.625 C 132.336 134.051,131.581 134.400,131.200 134.400 C 130.819 134.400,130.042 134.766,129.473 135.214 C 128.903 135.662,127.889 136.220,127.219 136.453 C 126.548 136.687,126.000 137.036,126.000 137.230 C 126.000 137.423,125.397 137.900,124.660 138.290 C 120.972 140.243,119.085 144.685,120.238 148.698 C 120.945 151.158,120.973 151.200,123.887 154.113 C 126.637 156.863,126.854 157.029,128.374 157.544 C 129.130 157.800,130.050 158.283,130.419 158.617 C 130.788 158.951,132.091 159.387,133.315 159.586 C 134.538 159.785,136.138 160.275,136.870 160.674 C 138.845 161.752,156.906 161.766,159.528 160.692 C 160.478 160.303,162.619 159.795,164.286 159.563 C 165.952 159.331,167.566 158.891,167.871 158.586 C 168.177 158.280,169.073 157.852,169.862 157.634 C 170.651 157.416,171.590 156.962,171.949 156.625 C 173.320 155.335,178.327 151.200,178.518 151.200 C 178.790 151.200,181.799 148.366,187.783 142.474 C 193.690 136.658,194.683 136.162,196.505 138.113 L 197.707 139.400 208.154 139.400 C 214.993 139.400,219.014 139.243,219.800 138.945 C 220.460 138.694,221.954 138.109,223.119 137.643 L 225.239 136.796 229.587 141.098 C 231.978 143.464,234.596 145.940,235.403 146.600 C 237.643 148.429,240.843 151.273,242.044 152.500 C 242.636 153.105,243.253 153.600,243.415 153.600 C 243.576 153.600,244.120 154.005,244.623 154.500 C 246.438 156.284,248.070 157.301,249.714 157.670 C 250.635 157.877,251.664 158.296,252.000 158.600 C 252.337 158.905,254.230 159.350,256.206 159.590 C 258.183 159.830,260.700 160.329,261.800 160.700 C 264.737 161.691,276.638 161.694,279.200 160.705 C 280.190 160.323,282.257 159.817,283.793 159.582 C 285.330 159.347,286.884 158.886,287.246 158.558 C 287.609 158.230,288.568 157.779,289.379 157.555 C 291.069 157.088,291.539 156.732,295.040 153.264 C 296.448 151.869,297.601 150.429,297.601 150.064 C 297.602 149.699,297.962 148.811,298.401 148.090 C 299.410 146.437,299.409 144.490,298.400 143.200 C 297.970 142.650,297.614 141.969,297.609 141.687 C 297.598 141.064,294.998 138.400,294.401 138.400 C 294.167 138.400,293.871 138.130,293.745 137.800 C 293.618 137.470,292.769 136.869,291.857 136.465 C 290.946 136.061,289.953 135.431,289.651 135.065 C 289.349 134.699,288.674 134.400,288.151 134.400 C 287.628 134.400,286.841 134.041,286.402 133.602 C 285.963 133.163,284.748 132.616,283.702 132.387 C 282.656 132.157,281.612 131.722,281.382 131.420 C 281.152 131.118,279.907 130.675,278.615 130.437 C 277.323 130.198,275.979 129.743,275.628 129.425 C 275.277 129.108,273.843 128.663,272.442 128.438 C 271.040 128.212,269.593 127.756,269.226 127.423 C 268.859 127.091,267.224 126.630,265.593 126.399 C 263.961 126.168,262.215 125.709,261.712 125.379 C 261.209 125.050,259.417 124.605,257.730 124.391 C 256.043 124.177,254.262 123.740,253.772 123.419 C 253.283 123.098,251.394 122.649,249.575 122.421 C 247.757 122.193,245.859 121.738,245.359 121.410 C 244.859 121.082,242.885 120.637,240.973 120.419 C 239.061 120.202,237.087 119.756,236.587 119.428 C 236.086 119.100,234.303 118.661,232.625 118.453 C 230.946 118.245,229.135 117.787,228.600 117.437 C 228.066 117.087,227.366 116.800,227.045 116.800 C 226.063 116.800,224.079 114.851,223.607 113.422 C 223.362 112.679,222.926 111.980,222.638 111.870 C 221.788 111.544,221.584 109.379,222.209 107.318 C 222.975 104.795,222.939 103.592,221.990 100.025 C 221.146 96.852,220.675 96.141,217.322 92.983 C 214.987 90.783,214.880 90.413,215.408 86.355 C 215.762 83.642,215.070 82.775,214.398 85.088 M188.654 164.846 C 186.701 171.519,186.709 173.085,188.700 173.403 C 191.452 173.842,193.784 174.455,194.286 174.872 C 196.293 176.537,226.185 176.359,228.881 174.666 C 229.387 174.349,230.475 173.875,231.300 173.614 C 232.930 173.097,232.996 172.922,232.387 170.729 C 232.162 169.920,231.847 168.210,231.686 166.929 C 231.358 164.324,230.547 164.034,227.800 165.542 C 225.926 166.570,196.932 166.531,194.644 165.497 C 192.456 164.509,188.867 164.118,188.654 164.846 M192.673 202.660 C 192.530 202.803,192.815 203.330,193.307 203.831 C 198.044 208.660,199.084 209.636,199.695 209.830 C 200.083 209.953,200.400 210.217,200.400 210.417 C 200.400 210.616,200.923 211.050,201.562 211.380 C 202.201 211.711,203.013 212.271,203.367 212.624 C 205.052 214.309,213.925 214.162,215.781 212.418 C 216.260 211.968,216.796 211.600,216.973 211.600 C 217.150 211.600,217.909 211.060,218.661 210.400 C 219.413 209.740,220.279 209.200,220.587 209.200 C 220.894 209.200,221.257 208.849,221.394 208.420 C 221.530 207.992,221.983 207.533,222.400 207.400 C 222.817 207.267,223.267 206.817,223.400 206.400 C 223.533 205.983,223.992 205.530,224.420 205.394 C 224.849 205.257,225.200 204.910,225.200 204.622 C 225.200 204.334,225.487 203.859,225.839 203.568 C 226.784 202.783,225.572 202.458,223.238 202.870 C 215.920 204.162,207.406 204.221,201.000 203.025 C 197.683 202.406,193.127 202.206,192.673 202.660 M81.200 276.200 C 81.200 277.000,81.000 277.200,80.200 277.200 C 79.400 277.200,79.200 277.400,79.200 278.200 C 79.200 278.750,79.033 279.200,78.829 279.200 C 77.670 279.200,77.200 280.537,77.200 283.829 C 77.200 287.158,77.188 287.200,76.200 287.200 L 75.200 287.200 75.200 296.000 L 75.200 304.800 76.200 304.800 L 77.200 304.800 77.200 308.800 L 77.200 312.800 78.200 312.800 C 79.000 312.800,79.200 313.000,79.200 313.800 C 79.200 314.600,79.400 314.800,80.200 314.800 C 81.000 314.800,81.200 315.000,81.200 315.800 C 81.200 316.778,81.267 316.800,84.200 316.800 C 87.144 316.800,87.200 316.819,87.200 317.813 L 87.200 318.826 91.700 318.713 C 95.930 318.607,96.224 318.546,96.595 317.700 C 96.966 316.855,97.228 316.800,100.910 316.800 L 104.830 316.800 104.715 313.100 L 104.600 309.400 102.905 309.277 C 101.524 309.177,101.019 309.344,100.186 310.177 C 99.195 311.169,99.007 311.200,93.982 311.200 L 88.800 311.200 88.800 310.200 C 88.800 309.408,88.598 309.200,87.828 309.200 C 87.124 309.200,86.820 308.951,86.728 308.300 C 86.646 307.722,86.278 307.354,85.700 307.272 C 84.859 307.153,84.800 306.950,84.800 304.172 C 84.800 301.269,84.777 301.200,83.800 301.200 L 82.800 301.200 82.800 296.000 L 82.800 290.800 83.800 290.800 C 84.778 290.800,84.800 290.733,84.800 287.800 C 84.800 284.867,84.822 284.800,85.800 284.800 C 86.600 284.800,86.800 284.600,86.800 283.800 C 86.800 282.867,86.933 282.800,88.800 282.800 C 90.667 282.800,90.800 282.733,90.800 281.800 C 90.800 280.817,90.853 280.800,94.000 280.800 C 97.147 280.800,97.200 280.817,97.200 281.800 C 97.200 282.796,97.213 282.800,101.000 282.800 L 104.800 282.800 104.800 279.000 L 104.800 275.200 93.000 275.200 L 81.200 275.200 81.200 276.200 M275.200 281.200 L 275.200 285.200 273.200 285.200 C 271.349 285.200,271.200 285.272,271.200 286.172 C 271.200 286.876,270.951 287.180,270.300 287.272 C 269.534 287.381,269.382 287.679,269.279 289.279 C 269.109 291.919,270.040 292.800,273.000 292.800 L 275.200 292.800 275.200 303.800 L 275.200 314.800 276.200 314.800 C 277.000 314.800,277.200 315.000,277.200 315.800 L 277.200 316.800 284.000 316.800 L 290.800 316.800 290.800 314.000 L 290.800 311.200 287.800 311.200 C 284.867 311.200,284.800 311.178,284.800 310.200 C 284.800 309.400,284.600 309.200,283.800 309.200 L 282.800 309.200 282.800 301.000 L 282.800 292.800 286.800 292.800 L 290.800 292.800 290.800 289.000 L 290.800 285.200 286.800 285.200 L 282.800 285.200 282.800 281.200 L 282.800 277.200 279.000 277.200 L 275.200 277.200 275.200 281.200 M111.835 286.200 C 111.325 286.750,110.524 287.200,110.054 287.200 C 109.434 287.200,109.200 287.448,109.200 288.105 C 109.200 288.660,108.852 289.163,108.300 289.405 C 107.400 289.800,107.400 289.805,107.294 301.300 L 107.188 312.800 108.194 312.800 C 108.920 312.800,109.200 313.014,109.200 313.569 C 109.200 315.415,111.443 316.800,114.431 316.800 C 117.129 316.800,117.200 316.826,117.200 317.815 L 117.200 318.830 120.900 318.715 C 124.392 318.606,124.607 318.549,124.728 317.700 C 124.847 316.859,125.050 316.800,127.828 316.800 C 130.731 316.800,130.800 316.777,130.800 315.800 C 130.800 315.000,131.000 314.800,131.800 314.800 C 132.733 314.800,132.800 314.667,132.800 312.800 C 132.800 310.933,132.867 310.800,133.800 310.800 L 134.800 310.800 134.800 301.781 L 134.800 292.762 133.800 291.835 C 133.250 291.325,132.800 290.516,132.800 290.036 C 132.800 288.850,131.066 287.200,129.818 287.200 C 128.999 287.200,128.800 287.005,128.800 286.200 L 128.800 285.200 120.781 285.200 L 112.762 285.200 111.835 286.200 M139.200 301.000 L 139.200 316.800 143.000 316.800 L 146.800 316.800 146.800 306.818 L 146.800 296.836 147.818 295.818 C 148.378 295.258,149.278 294.800,149.818 294.800 C 150.599 294.800,150.800 294.595,150.800 293.800 L 150.800 292.800 154.800 292.800 L 158.800 292.800 158.800 289.000 L 158.800 285.200 153.982 285.200 C 149.376 285.200,149.120 285.244,148.164 286.200 C 147.614 286.750,146.734 287.200,146.208 287.200 C 145.473 287.200,145.215 287.454,145.087 288.300 C 144.995 288.905,144.893 288.455,144.860 287.300 L 144.800 285.200 142.000 285.200 L 139.200 285.200 139.200 301.000 M161.200 308.000 L 161.200 330.800 165.000 330.800 L 168.800 330.800 168.800 323.800 L 168.800 316.800 169.905 316.800 C 170.668 316.800,171.133 317.079,171.405 317.700 C 172.109 319.305,180.081 319.236,180.594 317.620 C 180.784 317.021,181.273 316.814,182.720 316.721 C 184.516 316.605,184.606 316.543,184.725 315.310 C 184.801 314.523,185.230 313.720,185.825 313.252 C 186.695 312.567,186.800 312.179,186.800 309.642 C 186.800 306.877,186.827 306.800,187.800 306.800 L 188.800 306.800 188.800 302.000 L 188.800 297.200 187.815 297.200 C 186.848 297.200,186.828 297.134,186.715 293.500 C 186.609 290.102,186.527 289.768,185.700 289.405 C 185.148 289.163,184.800 288.660,184.800 288.105 C 184.800 287.413,184.571 287.200,183.828 287.200 C 183.124 287.200,182.820 286.951,182.728 286.300 C 182.602 285.413,182.506 285.398,175.900 285.290 L 169.200 285.181 169.200 286.190 C 169.200 287.046,169.016 287.200,168.000 287.200 C 166.987 287.200,166.800 287.044,166.800 286.200 C 166.800 285.229,166.720 285.200,164.000 285.200 L 161.200 285.200 161.200 308.000 M197.200 286.200 C 197.200 287.133,197.067 287.200,195.200 287.200 L 193.200 287.200 193.200 289.200 C 193.200 291.067,193.133 291.200,192.200 291.200 L 191.200 291.200 191.200 302.000 L 191.200 312.800 192.200 312.800 C 193.000 312.800,193.200 313.000,193.200 313.800 C 193.200 314.600,193.400 314.800,194.200 314.800 C 195.000 314.800,195.200 315.000,195.200 315.800 C 195.200 316.778,195.267 316.800,198.200 316.800 C 201.145 316.800,201.200 316.819,201.200 317.815 L 201.200 318.830 204.900 318.715 C 208.392 318.606,208.607 318.549,208.728 317.700 C 208.847 316.859,209.050 316.800,211.828 316.800 C 214.731 316.800,214.800 316.777,214.800 315.800 C 214.800 315.000,215.000 314.800,215.800 314.800 C 216.554 314.800,216.800 314.590,216.800 313.946 C 216.800 313.476,217.250 312.675,217.800 312.165 L 218.800 311.238 218.800 301.219 L 218.800 291.200 217.822 291.200 C 216.939 291.200,216.832 291.015,216.722 289.300 L 216.600 287.400 214.700 287.278 C 212.985 287.168,212.800 287.061,212.800 286.178 L 212.800 285.200 205.000 285.200 L 197.200 285.200 197.200 286.200 M223.200 301.000 L 223.200 316.800 227.000 316.800 L 230.800 316.800 230.800 306.828 L 230.800 296.856 231.700 296.728 C 232.278 296.646,232.646 296.278,232.728 295.700 C 232.820 295.049,233.124 294.800,233.828 294.800 C 234.598 294.800,234.800 294.592,234.800 293.800 L 234.800 292.800 238.800 292.800 L 242.800 292.800 242.800 289.000 L 242.800 285.200 238.000 285.200 L 233.200 285.200 233.200 286.200 C 233.200 287.145,233.080 287.200,231.000 287.200 C 228.920 287.200,228.800 287.145,228.800 286.200 C 228.800 285.229,228.720 285.200,226.000 285.200 L 223.200 285.200 223.200 301.000 M245.200 289.000 L 245.200 292.800 252.200 292.800 L 259.200 292.800 259.200 293.800 C 259.200 294.600,259.400 294.800,260.200 294.800 C 261.043 294.800,261.200 294.987,261.200 295.991 L 261.200 297.181 254.300 297.291 C 247.487 297.399,247.398 297.411,247.272 298.300 C 247.173 299.000,246.883 299.200,245.972 299.200 C 244.104 299.200,243.200 300.430,243.200 302.972 C 243.200 304.920,243.107 305.158,242.300 305.272 C 241.472 305.390,241.400 305.608,241.400 308.000 C 241.400 310.392,241.472 310.610,242.300 310.728 C 243.116 310.844,243.200 311.073,243.200 313.199 C 243.200 316.276,243.728 316.800,246.829 316.800 C 249.091 316.800,249.200 316.846,249.200 317.800 C 249.200 318.771,249.280 318.800,252.000 318.800 C 254.720 318.800,254.800 318.771,254.800 317.800 C 254.800 316.823,254.868 316.800,257.773 316.800 C 260.710 316.800,260.749 316.786,260.913 315.700 L 261.080 314.600 261.140 315.700 L 261.200 316.800 265.005 316.800 L 268.811 316.800 268.705 303.100 L 268.600 289.400 267.700 289.272 C 267.049 289.180,266.800 288.876,266.800 288.172 C 266.800 287.402,266.592 287.200,265.800 287.200 C 265.000 287.200,264.800 287.000,264.800 286.200 L 264.800 285.200 255.000 285.200 L 245.200 285.200 245.200 289.000 M297.200 286.192 C 297.200 287.001,297.002 287.200,296.200 287.200 C 295.400 287.200,295.200 287.400,295.200 288.200 C 295.200 289.000,295.000 289.200,294.200 289.200 C 293.222 289.200,293.200 289.267,293.200 292.200 C 293.200 295.141,293.180 295.200,292.190 295.200 L 291.180 295.200 291.290 301.700 C 291.396 307.972,291.431 308.214,292.284 308.588 C 293.058 308.927,293.183 309.329,293.284 311.788 C 293.389 314.334,293.483 314.612,294.275 314.725 C 294.821 314.802,295.198 315.179,295.275 315.725 C 295.389 316.519,295.665 316.611,298.274 316.717 C 300.892 316.824,301.160 316.913,301.274 317.717 C 301.473 319.117,312.529 319.100,312.728 317.700 C 312.841 316.906,313.087 316.800,314.828 316.800 L 316.800 316.800 316.800 314.000 L 316.800 311.200 309.800 311.200 L 302.800 311.200 302.800 310.200 C 302.800 309.400,302.600 309.200,301.800 309.200 C 300.868 309.200,300.800 309.065,300.800 307.227 C 300.800 305.381,300.729 305.242,299.700 305.087 C 299.095 304.995,302.245 304.893,306.700 304.860 L 314.800 304.800 314.800 303.800 C 314.800 303.000,315.000 302.800,315.800 302.800 C 316.600 302.800,316.800 302.600,316.800 301.800 C 316.800 301.000,317.000 300.800,317.800 300.800 L 318.800 300.800 318.800 296.000 L 318.800 291.200 317.800 291.200 C 316.867 291.200,316.800 291.067,316.800 289.200 C 316.800 287.389,316.714 287.200,315.895 287.200 C 315.340 287.200,314.837 286.852,314.595 286.300 C 314.205 285.412,314.083 285.399,305.700 285.292 L 297.200 285.184 297.200 286.192 M125.278 294.700 C 125.382 296.321,125.532 296.619,126.300 296.728 C 127.180 296.853,127.200 296.969,127.200 302.028 L 127.200 307.200 126.200 307.200 C 125.400 307.200,125.200 307.400,125.200 308.200 C 125.200 309.000,125.000 309.200,124.200 309.200 C 123.400 309.200,123.200 309.400,123.200 310.200 C 123.200 311.183,123.147 311.200,120.000 311.200 C 116.853 311.200,116.800 311.183,116.800 310.200 C 116.800 309.400,116.600 309.200,115.800 309.200 L 114.800 309.200 114.800 302.000 L 114.800 294.800 115.800 294.800 C 116.600 294.800,116.800 294.600,116.800 293.800 L 116.800 292.800 120.978 292.800 L 125.156 292.800 125.278 294.700 M177.200 293.800 C 177.200 294.600,177.400 294.800,178.200 294.800 C 179.178 294.800,179.200 294.867,179.200 297.800 L 179.200 300.800 180.300 300.812 C 181.325 300.823,181.346 300.855,180.600 301.278 C 179.335 301.995,179.213 302.400,179.206 305.900 C 179.200 309.152,179.185 309.200,178.200 309.200 C 177.400 309.200,177.200 309.400,177.200 310.200 C 177.200 311.144,177.079 311.200,175.018 311.200 C 173.224 311.200,172.659 311.022,171.836 310.200 C 171.286 309.650,170.378 309.200,169.818 309.200 L 168.800 309.200 168.800 302.014 C 168.800 292.955,168.827 292.907,173.900 292.842 C 177.165 292.800,177.200 292.811,177.200 293.800 M209.200 293.800 C 209.200 294.600,209.400 294.800,210.200 294.800 L 211.200 294.800 211.200 301.000 L 211.200 307.200 210.200 307.200 C 209.408 307.200,209.200 307.402,209.200 308.172 C 209.200 308.876,208.951 309.180,208.300 309.272 C 207.722 309.354,207.354 309.722,207.272 310.300 C 206.958 312.513,201.362 311.335,200.620 308.900 C 200.469 308.404,199.998 307.813,199.573 307.586 C 198.860 307.204,198.800 306.690,198.800 300.986 L 198.800 294.800 199.800 294.800 C 200.600 294.800,200.800 294.600,200.800 293.800 L 200.800 292.800 205.000 292.800 L 209.200 292.800 209.200 293.800 M309.324 293.630 C 309.443 294.086,309.914 294.557,310.370 294.676 C 311.687 295.021,311.540 297.200,310.200 297.200 C 309.400 297.200,309.200 297.400,309.200 298.200 L 309.200 299.200 303.942 299.200 L 298.683 299.200 299.742 298.219 C 300.641 297.385,300.800 296.905,300.800 295.019 L 300.800 292.800 304.953 292.800 C 308.820 292.800,309.122 292.857,309.324 293.630 M261.200 306.000 L 261.200 309.200 259.200 309.200 C 257.333 309.200,257.200 309.267,257.200 310.200 C 257.200 311.183,257.147 311.200,254.000 311.200 L 250.800 311.200 250.800 308.022 L 250.800 304.844 252.700 304.722 C 254.321 304.618,254.619 304.468,254.728 303.700 C 254.848 302.853,255.043 302.800,258.028 302.800 L 261.200 302.800 261.200 306.000 M213.200 358.000 L 213.200 376.800 214.200 376.800 C 215.133 376.800,215.200 376.933,215.200 378.800 L 215.200 380.800 221.000 380.800 L 226.800 380.800 226.800 378.000 L 226.800 375.200 224.800 375.200 C 222.933 375.200,222.800 375.133,222.800 374.200 C 222.800 373.400,222.600 373.200,221.800 373.200 L 220.800 373.200 220.800 356.200 L 220.800 339.200 217.000 339.200 L 213.200 339.200 213.200 358.000 M41.200 342.200 C 41.200 343.000,41.000 343.200,40.200 343.200 C 39.400 343.200,39.200 343.400,39.200 344.200 C 39.200 345.000,39.000 345.200,38.200 345.200 L 37.200 345.200 37.200 360.842 L 37.200 376.485 38.200 377.271 C 38.919 377.837,39.200 378.443,39.200 379.429 L 39.200 380.800 52.000 380.800 L 64.800 380.800 64.800 378.000 L 64.800 375.200 55.800 375.200 L 46.800 375.200 46.800 374.200 C 46.800 373.400,46.600 373.200,45.800 373.200 L 44.800 373.200 44.800 369.008 L 44.800 364.815 53.700 364.708 L 62.600 364.600 62.717 361.717 C 62.903 357.148,63.015 357.200,53.000 357.200 L 44.800 357.200 44.800 354.169 C 44.800 351.353,44.883 351.056,45.969 349.969 L 47.138 348.800 55.341 348.800 C 65.193 348.800,64.800 348.984,64.800 344.371 L 64.800 341.200 53.000 341.200 L 41.200 341.200 41.200 342.200 M183.200 361.000 L 183.200 380.800 187.000 380.800 L 190.800 380.800 190.800 374.800 L 190.800 368.800 197.800 368.800 L 204.800 368.800 204.800 367.800 C 204.800 366.909,204.965 366.800,206.320 366.800 C 207.156 366.800,208.056 366.584,208.320 366.320 C 208.584 366.056,208.800 365.156,208.800 364.320 C 208.800 362.962,208.908 362.800,209.808 362.800 L 210.816 362.800 210.708 354.100 C 210.600 345.419,210.598 345.400,209.700 345.272 C 209.049 345.180,208.800 344.876,208.800 344.172 C 208.800 343.402,208.592 343.200,207.800 343.200 C 207.000 343.200,206.800 343.000,206.800 342.200 L 206.800 341.200 195.000 341.200 L 183.200 341.200 183.200 361.000 M153.200 347.182 L 153.200 351.165 150.300 351.282 L 147.400 351.400 147.282 354.100 L 147.163 356.800 149.182 356.800 L 151.200 356.800 151.200 365.800 L 151.200 374.800 152.200 374.800 C 153.133 374.800,153.200 374.933,153.200 376.800 C 153.200 378.667,153.267 378.800,154.200 378.800 C 155.000 378.800,155.200 379.000,155.200 379.800 L 155.200 380.800 161.000 380.800 L 166.800 380.800 166.800 378.000 L 166.800 375.200 163.800 375.200 L 160.800 375.200 160.800 373.981 C 160.800 373.194,160.445 372.433,159.800 371.835 C 158.806 370.914,158.800 370.865,158.800 363.854 L 158.800 356.800 162.800 356.800 L 166.800 356.800 166.800 354.000 L 166.800 351.200 162.800 351.200 L 158.800 351.200 158.800 347.200 L 158.800 343.200 156.000 343.200 L 153.200 343.200 153.200 347.182 M201.324 349.630 C 201.443 350.086,201.914 350.557,202.370 350.676 C 203.143 350.878,203.200 351.180,203.200 355.047 L 203.200 359.200 202.200 359.200 C 201.400 359.200,201.200 359.400,201.200 360.200 L 201.200 361.200 196.000 361.200 L 190.800 361.200 190.800 355.000 L 190.800 348.800 195.953 348.800 C 200.832 348.800,201.118 348.844,201.324 349.630 M65.200 355.000 C 65.200 358.768,65.208 358.800,66.182 358.800 C 67.115 358.800,67.169 358.932,67.282 361.500 C 67.385 363.857,67.514 364.250,68.300 364.595 C 69.052 364.925,69.200 365.303,69.200 366.895 C 69.200 368.660,69.273 368.800,70.200 368.800 C 71.178 368.800,71.200 368.867,71.200 371.800 C 71.200 374.733,71.222 374.800,72.200 374.800 C 73.145 374.800,73.200 374.920,73.200 377.000 C 73.200 380.380,73.819 380.800,78.800 380.800 L 82.800 380.800 82.800 379.800 C 82.800 379.000,83.000 378.800,83.800 378.800 C 84.778 378.800,84.800 378.733,84.800 375.800 C 84.800 372.867,84.822 372.800,85.800 372.800 C 86.731 372.800,86.800 372.665,86.800 370.828 C 86.800 369.087,86.906 368.841,87.700 368.728 C 88.526 368.611,88.610 368.361,88.718 365.700 C 88.830 362.919,88.875 362.800,89.818 362.800 C 90.730 362.800,90.800 362.657,90.800 360.800 C 90.800 359.700,90.967 358.800,91.171 358.800 C 92.307 358.800,92.800 357.459,92.800 354.371 L 92.800 351.200 89.000 351.200 L 85.200 351.200 85.200 353.200 C 85.200 355.067,85.133 355.200,84.200 355.200 C 83.222 355.200,83.200 355.267,83.200 358.200 C 83.200 361.133,83.178 361.200,82.200 361.200 C 81.267 361.200,81.200 361.333,81.200 363.200 C 81.200 364.300,81.033 365.200,80.829 365.200 C 79.823 365.200,79.197 366.572,79.126 368.929 L 79.052 371.400 78.905 369.300 C 78.771 367.379,78.675 367.200,77.779 367.200 C 76.827 367.200,76.800 367.116,76.800 364.200 C 76.800 361.282,76.773 361.200,75.818 361.200 C 74.885 361.200,74.831 361.068,74.718 358.500 C 74.615 356.143,74.486 355.750,73.700 355.405 C 72.948 355.075,72.800 354.697,72.800 353.105 L 72.800 351.200 69.000 351.200 L 65.200 351.200 65.200 355.000 M97.200 352.200 C 97.200 353.000,97.000 353.200,96.200 353.200 C 95.400 353.200,95.200 353.400,95.200 354.200 C 95.200 355.000,95.000 355.200,94.200 355.200 L 93.200 355.200 93.200 366.000 L 93.200 376.800 94.200 376.800 C 94.920 376.800,95.200 377.015,95.200 377.569 C 95.200 377.992,95.754 378.892,96.431 379.569 L 97.662 380.800 107.231 380.800 L 116.800 380.800 116.800 378.000 L 116.800 375.200 109.800 375.200 L 102.800 375.200 102.800 374.200 C 102.800 373.400,102.600 373.200,101.800 373.200 C 100.855 373.200,100.800 373.080,100.800 371.000 L 100.800 368.800 107.818 368.800 C 117.297 368.800,116.800 369.286,116.800 360.018 L 116.800 353.200 115.800 353.200 C 115.000 353.200,114.800 353.000,114.800 352.200 L 114.800 351.200 106.000 351.200 L 97.200 351.200 97.200 352.200 M121.200 366.000 L 121.200 380.800 125.000 380.800 L 128.800 380.800 128.800 369.800 L 128.800 358.800 131.773 358.800 C 134.710 358.800,134.749 358.786,134.913 357.700 L 135.080 356.600 135.140 357.700 C 135.188 358.576,135.395 358.800,136.153 358.800 C 136.782 358.800,137.181 359.083,137.324 359.630 C 137.443 360.086,137.914 360.557,138.370 360.676 C 139.182 360.889,139.200 361.111,139.200 370.847 L 139.200 380.800 143.000 380.800 L 146.800 380.800 146.800 368.000 L 146.800 355.200 145.800 355.200 C 145.000 355.200,144.800 355.000,144.800 354.200 C 144.800 353.400,144.600 353.200,143.800 353.200 C 143.000 353.200,142.800 353.000,142.800 352.200 L 142.800 351.200 136.000 351.200 L 129.200 351.200 129.200 352.258 L 129.200 353.317 128.219 352.258 C 127.325 351.294,126.970 351.200,124.219 351.200 L 121.200 351.200 121.200 366.000 M229.200 354.000 L 229.200 356.800 235.172 356.800 C 241.061 356.800,241.146 356.813,241.272 357.700 C 241.353 358.270,241.721 358.646,242.275 358.725 C 242.821 358.802,243.198 359.179,243.275 359.725 C 243.354 360.279,243.730 360.647,244.300 360.728 C 245.000 360.827,245.200 361.117,245.200 362.028 L 245.200 363.200 237.200 363.200 L 229.200 363.200 229.200 364.200 C 229.200 365.000,229.000 365.200,228.200 365.200 L 227.200 365.200 227.200 372.000 L 227.200 378.800 228.200 378.800 C 229.000 378.800,229.200 379.000,229.200 379.800 L 229.200 380.800 236.973 380.800 L 244.747 380.800 244.913 379.700 L 245.080 378.600 245.140 379.700 L 245.200 380.800 249.000 380.800 L 252.800 380.800 252.800 369.000 L 252.800 357.200 251.800 357.200 C 250.867 357.200,250.800 357.067,250.800 355.200 C 250.800 353.333,250.733 353.200,249.800 353.200 C 249.000 353.200,248.800 353.000,248.800 352.200 L 248.800 351.200 239.000 351.200 L 229.200 351.200 229.200 354.000 M255.200 366.000 L 255.200 380.800 259.000 380.800 L 262.800 380.800 262.800 370.800 L 262.800 360.800 263.800 360.800 C 264.590 360.800,264.800 360.598,264.800 359.837 C 264.800 358.773,266.565 358.459,271.078 358.720 L 273.156 358.840 273.278 360.520 C 273.372 361.812,273.608 362.291,274.300 362.595 C 275.195 362.987,275.200 363.043,275.200 371.910 L 275.200 380.830 278.900 380.715 L 282.600 380.600 282.600 370.000 L 282.600 359.400 281.700 359.272 C 280.859 359.153,280.800 358.950,280.800 356.172 C 280.800 353.269,280.777 353.200,279.800 353.200 C 279.000 353.200,278.800 353.000,278.800 352.200 L 278.800 351.200 271.027 351.200 L 263.253 351.200 263.087 352.300 L 262.920 353.400 262.860 352.300 L 262.800 351.200 259.000 351.200 L 255.200 351.200 255.200 366.000 M285.200 366.000 L 285.200 380.800 289.000 380.800 L 292.800 380.800 292.800 370.828 L 292.800 360.856 293.700 360.728 C 294.278 360.646,294.646 360.278,294.728 359.700 C 294.841 358.906,295.087 358.800,296.828 358.800 C 298.703 358.800,298.802 358.746,298.840 357.700 L 298.880 356.600 299.156 357.600 C 299.393 358.460,299.696 358.617,301.310 358.722 L 303.187 358.843 303.294 369.722 L 303.400 380.600 307.100 380.715 L 310.800 380.830 310.800 367.015 L 310.800 353.200 309.800 353.200 C 309.000 353.200,308.800 353.000,308.800 352.200 L 308.800 351.200 301.027 351.200 L 293.253 351.200 293.087 352.300 L 292.920 353.400 292.860 352.300 L 292.800 351.200 289.000 351.200 L 285.200 351.200 285.200 366.000 M319.200 352.200 C 319.200 353.000,319.000 353.200,318.200 353.200 C 317.400 353.200,317.200 353.400,317.200 354.200 C 317.200 355.000,317.000 355.200,316.200 355.200 L 315.200 355.200 315.200 366.000 L 315.200 376.800 316.200 376.800 C 317.000 376.800,317.200 377.000,317.200 377.800 C 317.200 378.600,317.400 378.800,318.200 378.800 C 319.000 378.800,319.200 379.000,319.200 379.800 L 319.200 380.800 329.000 380.800 L 338.800 380.800 338.800 378.000 L 338.800 375.200 331.800 375.200 L 324.800 375.200 324.800 374.200 C 324.800 373.400,324.600 373.200,323.800 373.200 C 322.855 373.200,322.800 373.080,322.800 371.000 L 322.800 368.800 330.320 368.800 C 339.003 368.800,338.800 368.883,338.800 365.348 C 338.800 363.068,338.877 362.845,339.700 362.728 C 340.462 362.620,340.600 362.355,340.600 361.000 C 340.600 359.645,340.462 359.380,339.700 359.272 C 338.859 359.153,338.800 358.950,338.800 356.172 C 338.800 353.269,338.777 353.200,337.800 353.200 C 337.000 353.200,336.800 353.000,336.800 352.200 L 336.800 351.200 328.000 351.200 L 319.200 351.200 319.200 352.200 M343.200 366.000 L 343.200 380.800 347.000 380.800 L 350.800 380.800 350.800 370.800 L 350.800 360.800 351.818 360.800 C 352.378 360.800,353.286 360.350,353.836 359.800 C 354.769 358.867,355.104 358.800,358.818 358.800 L 362.800 358.800 362.800 355.000 L 362.800 351.200 357.000 351.200 L 351.200 351.200 351.188 352.300 C 351.177 353.325,351.145 353.346,350.722 352.600 C 350.009 351.342,349.598 351.213,346.300 351.206 L 343.200 351.200 343.200 366.000 M108.253 358.228 C 108.994 359.014,109.600 359.812,109.600 360.002 C 109.600 360.191,110.005 360.480,110.500 360.644 L 111.400 360.941 110.400 361.187 C 109.773 361.341,109.352 361.762,109.272 362.316 C 109.150 363.163,108.971 363.200,104.972 363.200 L 100.800 363.200 100.800 361.000 C 100.800 358.920,100.855 358.800,101.800 358.800 C 102.600 358.800,102.800 358.600,102.800 357.800 C 102.800 356.045,106.465 356.333,108.253 358.228 M330.729 357.800 C 331.161 358.350,331.894 358.800,332.358 358.800 C 333.640 358.800,333.458 360.604,332.031 362.031 C 330.893 363.168,330.752 363.200,326.831 363.200 L 322.800 363.200 322.800 361.000 C 322.800 358.920,322.855 358.800,323.800 358.800 C 324.600 358.800,324.800 358.600,324.800 357.800 C 324.800 356.837,324.895 356.800,327.371 356.800 C 329.637 356.800,330.035 356.919,330.729 357.800 M245.200 371.000 L 245.200 373.200 243.200 373.200 C 241.333 373.200,241.200 373.267,241.200 374.200 C 241.200 375.183,241.147 375.200,238.000 375.200 L 234.800 375.200 234.800 372.000 L 234.800 368.800 240.000 368.800 L 245.200 368.800 245.200 371.000 " stroke="none" fill="#06253c" fill-rule="evenodd"></path><path id="path1" d="M204.164 20.200 C 203.614 20.750,202.722 21.200,202.182 21.200 C 201.401 21.200,201.200 21.405,201.200 22.200 C 201.200 23.133,201.067 23.200,199.200 23.200 C 197.345 23.200,197.200 23.271,197.200 24.178 C 197.200 25.061,197.015 25.168,195.300 25.278 C 193.679 25.382,193.381 25.532,193.272 26.300 C 193.187 26.897,192.870 27.200,192.330 27.200 C 191.882 27.200,191.161 27.650,190.729 28.200 C 190.163 28.919,189.557 29.200,188.571 29.200 C 187.375 29.200,187.200 29.328,187.200 30.200 C 187.200 31.133,187.067 31.200,185.200 31.200 C 183.346 31.200,183.200 31.271,183.200 32.177 C 183.200 33.040,183.002 33.168,181.500 33.277 C 180.187 33.372,179.710 33.605,179.405 34.300 C 179.163 34.852,178.660 35.200,178.105 35.200 C 177.406 35.200,177.200 35.428,177.200 36.200 C 177.200 37.133,177.067 37.200,175.200 37.200 C 173.333 37.200,173.200 37.267,173.200 38.200 C 173.200 39.133,173.067 39.200,171.200 39.200 C 169.333 39.200,169.200 39.267,169.200 40.200 C 169.200 41.048,169.015 41.200,167.981 41.200 C 167.194 41.200,166.433 41.555,165.835 42.200 C 165.325 42.750,164.524 43.200,164.054 43.200 C 163.410 43.200,163.200 43.446,163.200 44.200 C 163.200 45.133,163.067 45.200,161.200 45.200 C 159.345 45.200,159.200 45.271,159.200 46.178 C 159.200 47.061,159.015 47.168,157.300 47.278 C 155.679 47.382,155.381 47.532,155.272 48.300 C 155.187 48.897,154.870 49.200,154.330 49.200 C 153.882 49.200,153.161 49.650,152.729 50.200 C 152.163 50.919,151.557 51.200,150.571 51.200 C 149.375 51.200,149.200 51.328,149.200 52.200 C 149.200 53.133,149.067 53.200,147.200 53.200 C 145.345 53.200,145.200 53.271,145.200 54.178 C 145.200 55.061,145.015 55.168,143.300 55.278 C 141.679 55.382,141.381 55.532,141.272 56.300 C 141.180 56.951,140.876 57.200,140.172 57.200 C 139.402 57.200,139.200 57.408,139.200 58.200 C 139.200 59.133,139.067 59.200,137.200 59.200 C 135.333 59.200,135.200 59.267,135.200 60.200 C 135.200 61.133,135.067 61.200,133.200 61.200 C 131.333 61.200,131.200 61.267,131.200 62.200 C 131.200 63.072,131.025 63.200,129.829 63.200 C 128.527 63.200,127.200 64.022,127.200 64.829 C 127.200 65.033,126.750 65.200,126.200 65.200 C 125.400 65.200,125.200 65.400,125.200 66.200 C 125.200 67.133,125.067 67.200,123.200 67.200 C 121.345 67.200,121.200 67.271,121.200 68.178 C 121.200 69.061,121.015 69.168,119.300 69.278 C 117.679 69.382,117.381 69.532,117.272 70.300 C 117.179 70.957,116.876 71.200,116.154 71.200 C 115.609 71.200,114.714 71.650,114.164 72.200 C 113.614 72.750,112.722 73.200,112.182 73.200 C 111.401 73.200,111.200 73.405,111.200 74.200 C 111.200 75.133,111.067 75.200,109.200 75.200 C 107.345 75.200,107.200 75.271,107.200 76.178 C 107.200 77.061,107.015 77.168,105.300 77.278 C 103.679 77.382,103.381 77.532,103.272 78.300 C 103.180 78.951,102.876 79.200,102.172 79.200 L 101.200 79.200 101.200 142.000 L 101.200 204.800 102.200 204.800 C 103.000 204.800,103.200 205.000,103.200 205.800 C 103.200 206.733,103.333 206.800,105.200 206.800 C 107.067 206.800,107.200 206.867,107.200 207.800 C 107.200 208.595,107.401 208.800,108.182 208.800 C 108.722 208.800,109.614 209.250,110.164 209.800 C 110.714 210.350,111.609 210.800,112.154 210.800 C 112.876 210.800,113.179 211.043,113.272 211.700 C 113.381 212.468,113.679 212.618,115.300 212.722 C 117.015 212.832,117.200 212.939,117.200 213.822 C 117.200 214.729,117.345 214.800,119.200 214.800 C 121.067 214.800,121.200 214.867,121.200 215.800 C 121.200 216.600,121.400 216.800,122.200 216.800 C 122.750 216.800,123.200 216.967,123.200 217.171 C 123.200 217.978,124.527 218.800,125.829 218.800 C 127.025 218.800,127.200 218.928,127.200 219.800 C 127.200 220.733,127.333 220.800,129.200 220.800 C 131.067 220.800,131.200 220.867,131.200 221.800 C 131.200 222.733,131.333 222.800,133.200 222.800 C 135.067 222.800,135.200 222.867,135.200 223.800 C 135.200 224.572,135.406 224.800,136.105 224.800 C 136.660 224.800,137.163 225.148,137.405 225.700 C 137.710 226.395,138.187 226.628,139.500 226.723 C 141.002 226.832,141.200 226.960,141.200 227.823 C 141.200 228.729,141.346 228.800,143.200 228.800 C 145.067 228.800,145.200 228.867,145.200 229.800 C 145.200 230.672,145.375 230.800,146.571 230.800 C 147.557 230.800,148.163 231.081,148.729 231.800 C 149.161 232.350,149.882 232.800,150.330 232.800 C 150.870 232.800,151.187 233.103,151.272 233.700 C 151.381 234.468,151.679 234.618,153.300 234.722 C 155.015 234.832,155.200 234.939,155.200 235.822 C 155.200 236.729,155.345 236.800,157.200 236.800 C 159.067 236.800,159.200 236.867,159.200 237.800 C 159.200 238.595,159.401 238.800,160.182 238.800 C 160.722 238.800,161.614 239.250,162.164 239.800 C 162.714 240.350,163.609 240.800,164.154 240.800 C 164.876 240.800,165.179 241.043,165.272 241.700 C 165.381 242.468,165.679 242.618,167.300 242.722 C 169.015 242.832,169.200 242.939,169.200 243.822 C 169.200 244.729,169.345 244.800,171.200 244.800 C 173.067 244.800,173.200 244.867,173.200 245.800 C 173.200 246.572,173.406 246.800,174.105 246.800 C 174.660 246.800,175.163 247.148,175.405 247.700 C 175.710 248.395,176.187 248.628,177.500 248.723 C 179.002 248.832,179.200 248.960,179.200 249.823 C 179.200 250.729,179.346 250.800,181.200 250.800 C 183.067 250.800,183.200 250.867,183.200 251.800 C 183.200 252.733,183.333 252.800,185.200 252.800 C 187.067 252.800,187.200 252.867,187.200 253.800 C 187.200 254.592,187.402 254.800,188.172 254.800 C 188.876 254.800,189.180 255.049,189.272 255.700 C 189.381 256.468,189.679 256.618,191.300 256.722 C 193.015 256.832,193.200 256.939,193.200 257.822 C 193.200 258.729,193.345 258.800,195.200 258.800 C 197.067 258.800,197.200 258.867,197.200 259.800 C 197.200 260.672,197.375 260.800,198.571 260.800 C 199.557 260.800,200.163 261.081,200.729 261.800 C 201.161 262.350,201.882 262.800,202.330 262.800 C 202.870 262.800,203.187 263.103,203.272 263.700 C 203.381 264.470,203.678 264.618,205.321 264.723 C 206.555 264.802,207.323 265.056,207.468 265.434 C 207.957 266.708,209.153 266.892,210.125 265.843 C 210.781 265.136,211.549 264.818,212.821 264.727 C 214.315 264.620,214.620 264.456,214.728 263.700 C 214.813 263.103,215.130 262.800,215.670 262.800 C 216.118 262.800,216.839 262.350,217.271 261.800 C 217.837 261.081,218.443 260.800,219.429 260.800 C 220.625 260.800,220.800 260.672,220.800 259.800 C 220.800 258.867,220.933 258.800,222.800 258.800 C 224.654 258.800,224.800 258.729,224.800 257.823 C 224.800 256.960,224.998 256.832,226.500 256.723 C 227.813 256.628,228.290 256.395,228.595 255.700 C 228.837 255.148,229.340 254.800,229.895 254.800 C 230.594 254.800,230.800 254.572,230.800 253.800 C 230.800 252.867,230.933 252.800,232.800 252.800 C 234.667 252.800,234.800 252.733,234.800 251.800 C 234.800 250.867,234.933 250.800,236.800 250.800 C 238.667 250.800,238.800 250.733,238.800 249.800 C 238.800 248.952,238.985 248.800,240.019 248.800 C 240.806 248.800,241.567 248.445,242.165 247.800 C 242.675 247.250,243.476 246.800,243.946 246.800 C 244.590 246.800,244.800 246.554,244.800 245.800 C 244.800 244.867,244.933 244.800,246.800 244.800 C 248.655 244.800,248.800 244.729,248.800 243.822 C 248.800 242.939,248.985 242.832,250.700 242.722 C 252.321 242.618,252.619 242.468,252.728 241.700 C 252.813 241.103,253.130 240.800,253.670 240.800 C 254.118 240.800,254.839 240.350,255.271 239.800 C 255.837 239.081,256.443 238.800,257.429 238.800 C 258.625 238.800,258.800 238.672,258.800 237.800 C 258.800 236.867,258.933 236.800,260.800 236.800 C 262.655 236.800,262.800 236.729,262.800 235.822 C 262.800 234.939,262.985 234.832,264.700 234.722 C 266.321 234.618,266.619 234.468,266.728 233.700 C 266.813 233.103,267.130 232.800,267.670 232.800 C 268.118 232.800,268.839 232.350,269.271 231.800 C 269.837 231.081,270.443 230.800,271.429 230.800 C 272.625 230.800,272.800 230.672,272.800 229.800 C 272.800 228.867,272.933 228.800,274.800 228.800 C 276.654 228.800,276.800 228.729,276.800 227.823 C 276.800 226.960,276.998 226.832,278.500 226.723 C 279.813 226.628,280.290 226.395,280.595 225.700 C 280.837 225.148,281.340 224.800,281.895 224.800 C 282.594 224.800,282.800 224.572,282.800 223.800 C 282.800 222.867,282.933 222.800,284.800 222.800 C 286.667 222.800,286.800 222.733,286.800 221.800 C 286.800 220.867,286.933 220.800,288.800 220.800 C 290.667 220.800,290.800 220.733,290.800 219.800 C 290.800 218.952,290.985 218.800,292.019 218.800 C 292.806 218.800,293.567 218.445,294.165 217.800 C 294.675 217.250,295.476 216.800,295.946 216.800 C 296.590 216.800,296.800 216.554,296.800 215.800 C 296.800 214.867,296.933 214.800,298.800 214.800 C 300.655 214.800,300.800 214.729,300.800 213.822 C 300.800 212.939,300.985 212.832,302.700 212.722 C 304.321 212.618,304.619 212.468,304.728 211.700 C 304.813 211.103,305.130 210.800,305.670 210.800 C 306.118 210.800,306.839 210.350,307.271 209.800 C 307.837 209.081,308.443 208.800,309.429 208.800 C 310.625 208.800,310.800 208.672,310.800 207.800 C 310.800 206.867,310.933 206.800,312.800 206.800 C 314.667 206.800,314.800 206.733,314.800 205.800 C 314.800 205.000,315.000 204.800,315.800 204.800 L 316.800 204.800 316.800 142.000 L 316.800 79.200 315.828 79.200 C 315.124 79.200,314.820 78.951,314.728 78.300 C 314.619 77.532,314.321 77.382,312.700 77.278 C 310.985 77.168,310.800 77.061,310.800 76.178 C 310.800 75.271,310.655 75.200,308.800 75.200 C 306.933 75.200,306.800 75.133,306.800 74.200 C 306.800 73.328,306.625 73.200,305.429 73.200 C 304.443 73.200,303.837 72.919,303.271 72.200 C 302.839 71.650,302.118 71.200,301.670 71.200 C 301.130 71.200,300.813 70.897,300.728 70.300 C 300.619 69.532,300.321 69.382,298.700 69.278 C 296.985 69.168,296.800 69.061,296.800 68.178 C 296.800 67.271,296.655 67.200,294.800 67.200 C 292.933 67.200,292.800 67.133,292.800 66.200 C 292.800 65.446,292.590 65.200,291.946 65.200 C 291.476 65.200,290.675 64.750,290.165 64.200 C 289.567 63.555,288.806 63.200,288.019 63.200 C 286.985 63.200,286.800 63.048,286.800 62.200 C 286.800 61.267,286.667 61.200,284.800 61.200 C 282.933 61.200,282.800 61.133,282.800 60.200 C 282.800 59.267,282.667 59.200,280.800 59.200 C 278.933 59.200,278.800 59.133,278.800 58.200 C 278.800 57.428,278.594 57.200,277.895 57.200 C 277.340 57.200,276.837 56.852,276.595 56.300 C 276.290 55.605,275.813 55.372,274.500 55.277 C 272.998 55.168,272.800 55.040,272.800 54.177 C 272.800 53.271,272.654 53.200,270.800 53.200 C 268.933 53.200,268.800 53.133,268.800 52.200 C 268.800 51.328,268.625 51.200,267.429 51.200 C 266.443 51.200,265.837 50.919,265.271 50.200 C 264.839 49.650,264.118 49.200,263.670 49.200 C 263.130 49.200,262.813 48.897,262.728 48.300 C 262.619 47.532,262.321 47.382,260.700 47.278 C 258.985 47.168,258.800 47.061,258.800 46.178 C 258.800 45.271,258.655 45.200,256.800 45.200 C 254.933 45.200,254.800 45.133,254.800 44.200 C 254.800 43.405,254.599 43.200,253.818 43.200 C 253.278 43.200,252.386 42.750,251.836 42.200 C 251.286 41.650,250.391 41.200,249.846 41.200 C 249.124 41.200,248.821 40.957,248.728 40.300 C 248.619 39.532,248.321 39.382,246.700 39.278 C 244.985 39.168,244.800 39.061,244.800 38.178 C 244.800 37.271,244.655 37.200,242.800 37.200 C 240.933 37.200,240.800 37.133,240.800 36.200 C 240.800 35.400,240.600 35.200,239.800 35.200 C 239.250 35.200,238.800 35.033,238.800 34.829 C 238.800 34.022,237.473 33.200,236.171 33.200 C 234.975 33.200,234.800 33.072,234.800 32.200 C 234.800 31.267,234.667 31.200,232.800 31.200 C 230.933 31.200,230.800 31.133,230.800 30.200 C 230.800 29.267,230.667 29.200,228.800 29.200 C 226.933 29.200,226.800 29.133,226.800 28.200 C 226.800 27.428,226.594 27.200,225.895 27.200 C 225.340 27.200,224.837 26.852,224.595 26.300 C 224.290 25.605,223.813 25.372,222.500 25.277 C 220.998 25.168,220.800 25.040,220.800 24.177 C 220.800 23.271,220.654 23.200,218.800 23.200 C 216.933 23.200,216.800 23.133,216.800 22.200 C 216.800 21.328,216.625 21.200,215.429 21.200 C 214.443 21.200,213.837 20.919,213.271 20.200 C 212.535 19.263,212.252 19.200,208.824 19.200 C 205.453 19.200,205.085 19.279,204.164 20.200 M201.101 75.127 C 201.815 75.637,202.400 76.284,202.400 76.565 C 202.400 76.846,202.766 77.407,203.213 77.812 C 203.660 78.216,204.218 79.312,204.453 80.246 C 204.689 81.181,205.124 82.039,205.420 82.152 C 205.716 82.266,206.150 83.073,206.385 83.945 C 207.277 87.255,210.718 89.412,211.419 87.100 C 211.569 86.605,212.014 85.840,212.408 85.400 C 212.801 84.960,213.311 83.907,213.541 83.059 C 213.770 82.212,214.208 81.312,214.513 81.059 C 214.819 80.807,215.279 79.857,215.536 78.950 C 215.841 77.870,216.620 76.730,217.792 75.650 L 219.582 74.000 224.091 73.937 C 229.745 73.857,230.064 73.890,230.798 74.637 C 231.726 75.581,230.438 76.295,227.261 76.599 C 220.782 77.220,218.966 78.360,218.434 82.142 C 218.222 83.650,217.785 85.180,217.462 85.542 C 216.923 86.147,216.599 88.007,216.742 89.686 C 216.774 90.063,217.407 90.784,218.149 91.288 C 219.765 92.386,222.280 95.584,222.633 96.990 C 222.773 97.546,223.025 98.000,223.195 98.000 C 224.048 98.000,224.466 100.610,224.360 105.270 C 224.236 110.758,224.548 112.748,225.654 113.523 C 226.064 113.810,226.400 114.286,226.400 114.580 C 226.400 115.229,227.276 115.600,228.807 115.600 C 230.096 115.600,232.070 116.266,232.409 116.815 C 232.533 117.015,233.977 117.293,235.617 117.432 C 237.258 117.571,239.320 118.010,240.200 118.408 C 241.080 118.805,243.317 119.327,245.172 119.567 C 247.026 119.806,248.920 120.248,249.379 120.549 C 249.838 120.850,251.727 121.300,253.576 121.549 C 255.426 121.798,257.223 122.258,257.569 122.571 C 257.916 122.884,259.370 123.261,260.800 123.410 C 262.230 123.559,264.120 124.014,265.000 124.421 C 265.880 124.828,267.749 125.344,269.153 125.567 C 270.558 125.790,271.998 126.233,272.353 126.551 C 272.709 126.869,273.900 127.251,275.000 127.400 C 276.100 127.550,277.467 128.000,278.038 128.402 C 278.609 128.804,279.938 129.262,280.992 129.420 C 282.045 129.578,283.233 130.033,283.631 130.431 C 284.029 130.829,285.020 131.280,285.832 131.432 C 286.645 131.585,287.604 132.004,287.964 132.364 C 288.325 132.725,289.380 133.247,290.310 133.526 C 291.239 133.804,292.000 134.209,292.000 134.425 C 292.000 134.641,292.495 135.033,293.100 135.297 C 293.705 135.561,294.584 136.142,295.052 136.588 C 295.521 137.035,296.388 137.732,296.978 138.138 C 297.569 138.544,298.263 139.354,298.520 139.938 C 298.777 140.522,299.305 141.235,299.694 141.523 C 300.768 142.318,300.726 148.874,299.639 149.961 C 299.221 150.379,298.747 151.144,298.586 151.661 C 298.025 153.464,292.816 158.400,291.474 158.400 C 291.189 158.400,290.371 158.831,289.657 159.358 C 288.944 159.884,287.514 160.440,286.480 160.593 C 285.446 160.746,284.273 161.164,283.874 161.521 C 282.108 163.102,257.866 163.086,256.112 161.503 C 255.720 161.150,254.269 160.733,252.886 160.577 C 251.504 160.421,249.974 159.984,249.486 159.605 C 248.999 159.226,247.925 158.696,247.100 158.427 C 246.275 158.158,245.600 157.777,245.600 157.579 C 245.600 157.382,245.060 156.941,244.400 156.600 C 243.740 156.259,243.200 155.714,243.200 155.390 C 243.200 155.065,242.949 154.800,242.642 154.800 C 242.336 154.800,241.542 154.305,240.878 153.700 C 240.214 153.095,239.000 152.060,238.180 151.400 C 237.360 150.740,235.818 149.345,234.753 148.300 C 233.688 147.255,232.629 146.400,232.399 146.400 C 232.169 146.400,231.809 145.950,231.600 145.400 C 231.391 144.850,231.035 144.400,230.810 144.400 C 230.263 144.400,225.812 139.929,225.469 139.035 C 225.223 138.396,225.084 138.426,223.968 139.365 C 223.166 140.040,222.228 140.412,221.269 140.436 C 220.461 140.455,217.640 140.639,215.000 140.844 C 206.594 141.496,196.576 140.893,195.584 139.676 C 194.664 138.545,193.944 139.008,188.600 144.166 C 185.960 146.714,183.575 148.799,183.300 148.799 C 183.025 148.800,182.800 149.064,182.800 149.386 C 182.800 149.708,182.444 150.162,182.009 150.395 C 181.574 150.628,180.772 151.264,180.227 151.809 C 179.682 152.354,179.048 152.800,178.818 152.800 C 178.588 152.800,178.400 153.070,178.400 153.400 C 178.400 153.730,178.226 154.000,178.013 154.000 C 177.801 154.000,176.979 154.585,176.187 155.300 C 175.395 156.015,174.301 157.003,173.757 157.497 C 173.212 157.990,172.298 158.511,171.725 158.655 C 171.153 158.798,170.379 159.221,170.005 159.595 C 169.632 159.968,168.451 160.394,167.382 160.540 C 166.313 160.687,164.663 161.182,163.715 161.641 C 160.320 163.285,135.125 163.142,133.276 161.469 C 132.893 161.122,131.824 160.717,130.900 160.570 C 129.977 160.422,128.642 159.873,127.933 159.351 C 127.224 158.828,126.416 158.400,126.136 158.400 C 125.857 158.400,125.435 158.040,125.200 157.600 C 124.965 157.160,124.523 156.800,124.219 156.800 C 123.493 156.800,119.613 152.388,119.606 151.554 C 119.603 151.199,119.208 150.409,118.728 149.800 C 117.701 148.493,117.298 145.101,117.993 143.600 C 119.266 140.850,121.809 137.600,122.688 137.600 C 122.890 137.600,123.443 137.155,123.916 136.611 C 124.389 136.066,125.277 135.497,125.888 135.346 C 126.500 135.195,127.225 134.754,127.500 134.367 C 127.776 133.980,128.586 133.540,129.300 133.388 C 130.015 133.237,130.960 132.788,131.400 132.389 C 131.840 131.991,132.900 131.536,133.755 131.378 C 134.610 131.220,135.617 130.783,135.992 130.408 C 136.367 130.033,137.516 129.611,138.544 129.470 C 139.573 129.329,140.906 128.869,141.507 128.447 C 142.108 128.026,143.456 127.576,144.503 127.448 C 145.550 127.319,146.830 126.937,147.349 126.597 C 147.867 126.257,149.441 125.786,150.846 125.551 C 152.251 125.315,154.120 124.798,155.000 124.402 C 155.880 124.005,157.770 123.559,159.200 123.410 C 160.630 123.261,162.084 122.884,162.431 122.571 C 162.777 122.258,164.574 121.798,166.424 121.549 C 168.273 121.300,170.172 120.844,170.643 120.535 C 171.114 120.226,173.187 119.779,175.250 119.540 C 177.312 119.302,179.288 118.855,179.639 118.546 C 179.991 118.238,181.881 117.792,183.839 117.555 C 185.868 117.310,187.688 116.868,188.069 116.529 C 188.437 116.201,189.517 115.833,190.469 115.712 C 192.738 115.423,193.600 114.948,193.600 113.986 C 193.600 113.554,194.005 112.795,194.500 112.300 C 195.359 111.441,195.400 111.106,195.400 104.932 C 195.400 98.886,195.456 98.404,196.254 97.532 C 196.724 97.020,197.226 96.210,197.371 95.733 C 197.600 94.975,199.033 93.389,202.300 90.275 C 203.360 89.265,203.434 88.522,202.573 87.570 C 202.227 87.188,201.762 85.555,201.538 83.941 C 201.314 82.326,200.995 80.914,200.827 80.802 C 200.660 80.691,200.269 80.060,199.957 79.400 C 199.253 77.909,196.747 77.020,192.077 76.607 C 188.626 76.301,187.493 75.693,188.380 74.624 C 189.459 73.324,199.109 73.706,201.101 75.127 M224.126 146.460 C 225.242 147.047,225.502 147.445,226.039 149.388 C 226.281 150.262,226.731 151.337,227.039 151.777 C 227.682 152.695,227.791 155.035,227.208 155.395 C 224.862 156.845,208.921 157.373,200.000 156.296 C 191.120 155.225,190.523 154.262,194.356 147.200 C 194.855 146.281,196.106 146.253,202.521 147.018 C 208.579 147.740,210.233 147.676,218.600 146.399 C 221.632 145.936,223.163 145.953,224.126 146.460 M195.180 163.599 C 197.919 163.850,200.776 164.314,201.529 164.628 C 203.506 165.454,220.428 165.457,221.714 164.631 C 222.660 164.024,230.780 163.064,231.766 163.442 C 233.959 164.284,235.312 173.480,233.400 174.552 C 232.960 174.798,232.510 175.108,232.400 175.240 C 231.842 175.910,230.297 176.330,227.423 176.592 C 225.601 176.759,223.817 177.164,223.240 177.541 C 221.732 178.529,201.469 178.530,199.961 177.542 C 199.331 177.129,197.627 176.785,195.379 176.616 C 191.867 176.352,189.600 175.797,189.600 175.203 C 189.600 175.037,188.903 174.791,188.052 174.655 C 185.682 174.276,185.465 173.773,185.687 169.173 L 185.880 165.156 187.415 163.584 C 188.761 162.206,189.028 162.082,189.575 162.577 C 189.971 162.934,192.025 163.309,195.180 163.599 M189.704 179.200 C 190.956 179.640,192.570 180.001,193.290 180.001 C 194.011 180.002,196.490 180.380,198.800 180.841 C 205.203 182.120,219.239 182.131,225.400 180.862 C 233.434 179.207,233.111 179.239,233.837 180.041 C 234.417 180.681,234.442 181.201,234.055 184.477 C 233.373 190.242,232.268 191.280,225.800 192.238 C 223.380 192.596,220.500 193.036,219.400 193.215 C 216.574 193.676,208.286 193.659,205.200 193.185 C 203.770 192.965,200.530 192.529,198.000 192.216 C 195.410 191.895,192.177 191.199,190.602 190.623 C 189.063 190.060,187.762 189.600,187.712 189.600 C 186.925 189.600,185.361 181.704,185.837 180.136 C 185.927 179.841,186.084 179.330,186.187 179.000 C 186.434 178.211,186.978 178.242,189.704 179.200 M195.200 200.747 C 196.079 201.321,198.097 201.406,211.851 201.446 C 220.459 201.471,227.704 201.617,227.951 201.770 C 228.676 202.218,228.469 203.389,227.500 204.322 C 227.005 204.799,226.150 205.745,225.600 206.426 C 224.500 207.786,224.209 208.076,222.301 209.720 C 221.585 210.336,220.640 211.156,220.200 211.541 C 218.556 212.981,216.139 214.392,214.890 214.642 C 214.181 214.784,213.600 215.051,213.600 215.235 C 213.600 216.410,207.027 216.570,205.880 215.422 C 205.605 215.148,204.705 214.796,203.881 214.642 C 203.057 214.487,202.163 214.009,201.895 213.580 C 201.627 213.151,201.221 212.800,200.993 212.800 C 199.663 212.800,191.890 205.557,191.343 203.808 C 191.204 203.364,190.752 202.567,190.339 202.038 C 188.700 199.940,192.442 198.945,195.200 200.747 " stroke="none" fill="#fbc33b" fill-rule="evenodd"></path><path id="path2" d="M218.600 146.399 C 210.233 147.676,208.579 147.740,202.521 147.018 C 196.106 146.253,194.855 146.281,194.356 147.200 C 190.523 154.262,191.120 155.225,200.000 156.296 C 208.921 157.373,224.862 156.845,227.208 155.395 C 227.791 155.035,227.682 152.695,227.039 151.777 C 226.731 151.337,226.281 150.262,226.039 149.388 C 225.124 146.077,223.908 145.588,218.600 146.399 M186.187 179.000 C 186.084 179.330,185.927 179.841,185.837 180.136 C 185.361 181.704,186.925 189.600,187.712 189.600 C 187.762 189.600,189.063 190.060,190.602 190.623 C 192.177 191.199,195.410 191.895,198.000 192.216 C 200.530 192.529,203.770 192.965,205.200 193.185 C 208.286 193.659,216.574 193.676,219.400 193.215 C 220.500 193.036,223.380 192.596,225.800 192.238 C 232.268 191.280,233.373 190.242,234.055 184.477 C 234.442 181.201,234.417 180.681,233.837 180.041 C 233.111 179.239,233.434 179.207,225.400 180.862 C 219.239 182.131,205.203 182.120,198.800 180.841 C 196.490 180.380,194.011 180.002,193.290 180.001 C 192.570 180.001,190.956 179.640,189.704 179.200 C 186.978 178.242,186.434 178.211,186.187 179.000 " stroke="none" fill="#fcfaf6" fill-rule="evenodd"></path><path id="path3" d="M213.402 20.402 C 213.802 20.844,214.215 21.118,214.321 21.012 C 214.590 20.743,213.592 19.600,213.089 19.600 C 212.862 19.600,213.003 19.961,213.402 20.402 M151.992 50.210 C 151.219 51.141,151.771 51.317,152.598 50.402 C 152.997 49.961,153.138 49.600,152.911 49.600 C 152.684 49.600,152.270 49.874,151.992 50.210 M303.402 72.402 C 303.802 72.844,304.215 73.118,304.321 73.012 C 304.590 72.743,303.592 71.600,303.089 71.600 C 302.862 71.600,303.003 71.961,303.402 72.402 M189.929 73.924 C 186.357 74.337,187.877 76.235,192.077 76.607 C 196.747 77.020,199.253 77.909,199.957 79.400 C 200.269 80.060,200.660 80.691,200.827 80.802 C 200.995 80.914,201.314 82.326,201.538 83.941 C 201.762 85.555,202.227 87.188,202.573 87.570 C 203.434 88.522,203.360 89.265,202.300 90.275 C 199.033 93.389,197.600 94.975,197.371 95.733 C 197.226 96.210,196.724 97.020,196.254 97.532 C 195.456 98.404,195.400 98.886,195.400 104.932 C 195.400 111.106,195.359 111.441,194.500 112.300 C 194.005 112.795,193.600 113.554,193.600 113.986 C 193.600 114.948,192.738 115.423,190.469 115.712 C 189.517 115.833,188.437 116.201,188.069 116.529 C 187.688 116.868,185.868 117.310,183.839 117.555 C 181.881 117.792,179.991 118.238,179.639 118.546 C 179.288 118.855,177.312 119.302,175.250 119.540 C 173.187 119.779,171.114 120.226,170.643 120.535 C 170.172 120.844,168.273 121.300,166.424 121.549 C 164.574 121.798,162.777 122.258,162.431 122.571 C 162.084 122.884,160.630 123.261,159.200 123.410 C 157.770 123.559,155.880 124.005,155.000 124.402 C 154.120 124.798,152.251 125.315,150.846 125.551 C 149.441 125.786,147.867 126.257,147.349 126.597 C 146.830 126.937,145.550 127.319,144.503 127.448 C 143.456 127.576,142.108 128.026,141.507 128.447 C 140.906 128.869,139.573 129.329,138.544 129.470 C 137.516 129.611,136.367 130.033,135.992 130.408 C 135.617 130.783,134.610 131.220,133.755 131.378 C 132.900 131.536,131.840 131.991,131.400 132.389 C 130.960 132.788,130.015 133.237,129.300 133.388 C 128.586 133.540,127.776 133.980,127.500 134.367 C 127.225 134.754,126.500 135.195,125.888 135.346 C 125.277 135.497,124.389 136.066,123.916 136.611 C 123.443 137.155,122.890 137.600,122.688 137.600 C 121.809 137.600,119.266 140.850,117.993 143.600 C 117.298 145.101,117.701 148.493,118.728 149.800 C 119.208 150.409,119.603 151.199,119.606 151.554 C 119.613 152.388,123.493 156.800,124.219 156.800 C 124.523 156.800,124.965 157.160,125.200 157.600 C 125.435 158.040,125.857 158.400,126.136 158.400 C 126.416 158.400,127.224 158.828,127.933 159.351 C 128.642 159.873,129.977 160.422,130.900 160.570 C 131.824 160.717,132.893 161.122,133.276 161.469 C 135.125 163.142,160.320 163.285,163.715 161.641 C 164.663 161.182,166.313 160.687,167.382 160.540 C 168.451 160.394,169.632 159.968,170.005 159.595 C 170.379 159.221,171.153 158.798,171.725 158.655 C 172.298 158.511,173.212 157.990,173.757 157.497 C 174.301 157.003,175.395 156.015,176.187 155.300 C 176.979 154.585,177.801 154.000,178.013 154.000 C 178.226 154.000,178.400 153.730,178.400 153.400 C 178.400 153.070,178.588 152.800,178.818 152.800 C 179.048 152.800,179.682 152.354,180.227 151.809 C 180.772 151.264,181.574 150.628,182.009 150.395 C 182.444 150.162,182.800 149.708,182.800 149.386 C 182.800 149.064,183.025 148.800,183.300 148.799 C 183.575 148.799,185.960 146.714,188.600 144.166 C 193.944 139.008,194.664 138.545,195.584 139.676 C 196.576 140.893,206.594 141.496,215.000 140.844 C 217.640 140.639,220.461 140.455,221.269 140.436 C 222.228 140.412,223.166 140.040,223.968 139.365 C 225.084 138.426,225.223 138.396,225.469 139.035 C 225.812 139.929,230.263 144.400,230.810 144.400 C 231.035 144.400,231.391 144.850,231.600 145.400 C 231.809 145.950,232.169 146.400,232.399 146.400 C 232.629 146.400,233.688 147.255,234.753 148.300 C 235.818 149.345,237.360 150.740,238.180 151.400 C 239.000 152.060,240.214 153.095,240.878 153.700 C 241.542 154.305,242.336 154.800,242.642 154.800 C 242.949 154.800,243.200 155.065,243.200 155.390 C 243.200 155.714,243.740 156.259,244.400 156.600 C 245.060 156.941,245.600 157.382,245.600 157.579 C 245.600 157.777,246.275 158.158,247.100 158.427 C 247.925 158.696,248.999 159.226,249.486 159.605 C 249.974 159.984,251.504 160.421,252.886 160.577 C 254.269 160.733,255.720 161.150,256.112 161.503 C 257.866 163.086,282.108 163.102,283.874 161.521 C 284.273 161.164,285.446 160.746,286.480 160.593 C 287.514 160.440,288.944 159.884,289.657 159.358 C 290.371 158.831,291.189 158.400,291.474 158.400 C 292.816 158.400,298.025 153.464,298.586 151.661 C 298.747 151.144,299.221 150.379,299.639 149.961 C 300.726 148.874,300.768 142.318,299.694 141.523 C 299.305 141.235,298.777 140.522,298.520 139.938 C 298.263 139.354,297.569 138.544,296.978 138.138 C 296.388 137.732,295.521 137.035,295.052 136.588 C 294.584 136.142,293.705 135.561,293.100 135.297 C 292.495 135.033,292.000 134.641,292.000 134.425 C 292.000 134.209,291.239 133.804,290.310 133.526 C 289.380 133.247,288.325 132.725,287.964 132.364 C 287.604 132.004,286.645 131.585,285.832 131.432 C 285.020 131.280,284.029 130.829,283.631 130.431 C 283.233 130.033,282.045 129.578,280.992 129.420 C 279.938 129.262,278.609 128.804,278.038 128.402 C 277.467 128.000,276.100 127.550,275.000 127.400 C 273.900 127.251,272.709 126.869,272.353 126.551 C 271.998 126.233,270.558 125.790,269.153 125.567 C 267.749 125.344,265.880 124.828,265.000 124.421 C 264.120 124.014,262.230 123.559,260.800 123.410 C 259.370 123.261,257.916 122.884,257.569 122.571 C 257.223 122.258,255.426 121.798,253.576 121.549 C 251.727 121.300,249.838 120.850,249.379 120.549 C 248.920 120.248,247.026 119.806,245.172 119.567 C 243.317 119.327,241.080 118.805,240.200 118.408 C 239.320 118.010,237.258 117.571,235.617 117.432 C 233.977 117.293,232.533 117.015,232.409 116.815 C 232.070 116.266,230.096 115.600,228.807 115.600 C 227.276 115.600,226.400 115.229,226.400 114.580 C 226.400 114.286,226.064 113.810,225.654 113.523 C 224.548 112.748,224.236 110.758,224.360 105.270 C 224.466 100.610,224.048 98.000,223.195 98.000 C 223.025 98.000,222.773 97.546,222.633 96.990 C 222.280 95.584,219.765 92.386,218.149 91.288 C 217.407 90.784,216.774 90.063,216.742 89.686 C 216.599 88.007,216.923 86.147,217.462 85.542 C 217.785 85.180,218.222 83.650,218.434 82.142 C 218.966 78.360,220.782 77.220,227.261 76.599 C 230.438 76.295,231.726 75.581,230.798 74.637 C 230.064 73.890,229.745 73.857,224.091 73.937 L 219.582 74.000 217.792 75.650 C 216.620 76.730,215.841 77.870,215.536 78.950 C 215.279 79.857,214.819 80.807,214.513 81.059 C 214.208 81.312,213.770 82.212,213.541 83.059 C 213.311 83.907,212.801 84.960,212.408 85.400 C 212.014 85.840,211.569 86.605,211.419 87.100 C 210.718 89.412,207.277 87.255,206.385 83.945 C 206.150 83.073,205.716 82.266,205.420 82.152 C 205.124 82.039,204.689 81.181,204.453 80.246 C 204.218 79.312,203.660 78.216,203.213 77.812 C 202.766 77.407,202.400 76.846,202.400 76.565 C 202.400 74.751,195.470 73.283,189.929 73.924 M201.525 77.531 C 201.674 79.034,201.136 79.172,200.272 77.854 C 199.806 77.142,199.766 76.794,200.111 76.449 C 200.834 75.726,201.389 76.151,201.525 77.531 M219.772 77.245 C 219.431 77.797,218.400 77.663,218.400 77.067 C 218.400 76.773,218.518 76.415,218.663 76.270 C 219.025 75.908,220.044 76.805,219.772 77.245 M217.923 79.922 C 217.998 80.941,217.743 82.265,217.264 83.350 C 215.092 88.258,215.316 89.649,218.860 93.275 C 223.186 97.700,224.839 103.516,223.123 108.263 C 222.696 109.443,222.768 109.840,223.796 111.991 C 225.543 115.647,225.700 115.746,232.400 117.422 C 233.830 117.780,236.350 118.423,238.000 118.850 C 239.650 119.277,242.105 119.801,243.455 120.015 C 244.805 120.228,246.515 120.652,247.255 120.956 C 247.995 121.260,249.950 121.731,251.600 122.002 C 253.250 122.272,254.910 122.656,255.288 122.855 C 255.667 123.053,257.557 123.557,259.488 123.973 C 263.480 124.834,266.976 125.758,269.600 126.644 C 270.590 126.979,272.570 127.586,274.000 127.994 C 277.333 128.944,280.960 130.243,283.026 131.226 C 283.921 131.652,284.831 132.000,285.049 132.000 C 285.893 132.000,292.303 135.519,294.315 137.087 C 305.663 145.929,298.210 158.041,279.200 161.651 C 275.383 162.376,260.746 161.825,257.409 160.831 C 255.873 160.374,254.221 160.000,253.736 160.000 C 251.775 160.000,246.458 157.433,244.311 155.450 C 243.865 155.037,241.126 152.681,238.226 150.215 C 235.326 147.749,231.141 143.920,228.926 141.706 L 224.897 137.681 223.176 138.658 C 219.435 140.783,198.439 140.991,195.986 138.927 C 194.395 137.588,193.639 137.904,190.188 141.353 C 175.114 156.418,171.051 159.119,159.600 161.691 C 155.918 162.517,138.502 162.231,135.800 161.300 C 134.480 160.844,132.673 160.279,131.785 160.043 C 125.589 158.399,118.400 150.824,118.400 145.940 C 118.400 144.804,120.276 141.016,121.455 139.774 C 123.101 138.038,128.681 134.295,130.372 133.790 C 130.907 133.631,131.897 133.163,132.572 132.752 C 133.248 132.340,134.052 132.002,134.360 132.001 C 134.668 132.001,135.838 131.574,136.960 131.054 C 139.925 129.680,144.693 128.116,151.200 126.383 C 152.190 126.120,154.440 125.475,156.200 124.950 C 157.960 124.426,159.776 123.997,160.236 123.998 C 160.696 123.999,161.956 123.713,163.036 123.363 C 164.116 123.013,166.530 122.405,168.400 122.011 C 170.270 121.618,172.970 121.008,174.400 120.655 C 179.741 119.337,182.406 118.711,187.300 117.622 C 191.977 116.581,193.214 115.915,194.741 113.613 L 196.200 111.414 196.072 105.807 L 195.945 100.200 197.229 97.800 C 198.793 94.876,201.001 92.117,202.040 91.787 C 204.044 91.151,204.220 89.163,202.642 85.000 C 201.747 82.640,201.783 79.100,202.700 79.276 C 203.105 79.354,203.618 80.077,203.919 80.995 C 204.204 81.866,204.697 82.866,205.014 83.216 C 205.332 83.566,205.818 84.487,206.096 85.262 C 207.513 89.222,210.503 90.457,211.996 87.700 C 212.443 86.875,212.982 85.930,213.194 85.600 C 213.407 85.270,213.858 84.370,214.197 83.600 C 214.537 82.830,215.065 81.750,215.372 81.200 C 215.679 80.650,216.128 79.691,216.371 79.069 C 216.982 77.499,217.776 77.935,217.923 79.922 M187.415 163.584 L 185.880 165.156 185.687 169.173 C 185.465 173.773,185.682 174.276,188.052 174.655 C 188.903 174.791,189.600 175.037,189.600 175.203 C 189.600 175.797,191.867 176.352,195.379 176.616 C 197.627 176.785,199.331 177.129,199.961 177.542 C 201.469 178.530,221.732 178.529,223.240 177.541 C 223.817 177.164,225.601 176.759,227.423 176.592 C 230.297 176.330,231.842 175.910,232.400 175.240 C 232.510 175.108,232.960 174.798,233.400 174.552 C 235.312 173.480,233.959 164.284,231.766 163.442 C 230.780 163.064,222.660 164.024,221.714 164.631 C 220.428 165.457,203.506 165.454,201.529 164.628 C 200.776 164.314,197.919 163.850,195.180 163.599 C 192.025 163.309,189.971 162.934,189.575 162.577 C 189.028 162.082,188.761 162.206,187.415 163.584 M193.200 164.195 C 195.070 164.520,197.500 164.999,198.600 165.260 C 202.679 166.225,220.289 165.942,225.927 164.819 C 231.824 163.645,231.913 163.679,232.874 167.433 C 234.185 172.556,233.993 173.434,231.300 174.639 C 226.343 176.855,212.463 178.085,204.400 177.022 C 201.650 176.659,197.979 176.196,196.242 175.992 C 194.505 175.789,192.345 175.353,191.442 175.025 C 190.539 174.697,189.035 174.235,188.100 173.999 L 186.400 173.569 186.404 171.085 C 186.409 168.570,187.221 165.139,188.047 164.144 C 188.612 163.463,189.015 163.467,193.200 164.195 M190.218 200.380 C 189.642 201.016,189.653 201.160,190.339 202.038 C 190.752 202.567,191.204 203.364,191.343 203.808 C 191.890 205.557,199.663 212.800,200.993 212.800 C 201.221 212.800,201.627 213.151,201.895 213.580 C 202.163 214.009,203.057 214.487,203.881 214.642 C 204.705 214.796,205.605 215.148,205.880 215.422 C 207.027 216.570,213.600 216.410,213.600 215.235 C 213.600 215.051,214.181 214.784,214.890 214.642 C 216.139 214.392,218.556 212.981,220.200 211.541 C 220.640 211.156,221.585 210.336,222.301 209.720 C 224.209 208.076,224.500 207.786,225.600 206.426 C 226.150 205.745,227.005 204.799,227.500 204.322 C 228.469 203.389,228.676 202.218,227.951 201.770 C 227.704 201.617,220.459 201.471,211.851 201.446 C 198.097 201.406,196.079 201.321,195.200 200.747 C 193.646 199.731,190.983 199.535,190.218 200.380 M195.227 201.581 C 200.394 202.488,210.661 202.838,218.610 202.379 C 228.770 201.793,228.782 201.800,224.657 206.224 C 220.293 210.903,216.411 213.560,212.374 214.631 C 209.240 215.463,204.422 214.640,202.386 212.927 C 201.780 212.417,201.162 212.000,201.013 212.000 C 199.280 212.000,191.358 203.392,191.803 201.992 C 192.091 201.085,192.272 201.063,195.227 201.581 M307.402 209.598 C 307.003 210.039,306.862 210.400,307.089 210.400 C 307.592 210.400,308.590 209.257,308.321 208.988 C 308.215 208.882,307.802 209.156,307.402 209.598 M147.600 231.089 C 147.600 231.592,148.743 232.590,149.012 232.321 C 149.118 232.215,148.844 231.802,148.402 231.402 C 147.961 231.003,147.600 230.862,147.600 231.089 M255.402 239.598 C 255.003 240.039,254.862 240.400,255.089 240.400 C 255.592 240.400,256.590 239.257,256.321 238.988 C 256.215 238.882,255.802 239.156,255.402 239.598 M199.600 261.089 C 199.600 261.592,200.743 262.590,201.012 262.321 C 201.118 262.215,200.844 261.802,200.402 261.402 C 199.961 261.003,199.600 260.862,199.600 261.089 " stroke="none" fill="#a4863c" fill-rule="evenodd"></path><path id="path4" d="M200.111 76.449 C 199.766 76.794,199.806 77.142,200.272 77.854 C 201.136 79.172,201.674 79.034,201.525 77.531 C 201.389 76.151,200.834 75.726,200.111 76.449 M218.663 76.270 C 218.518 76.415,218.400 76.773,218.400 77.067 C 218.400 77.663,219.431 77.797,219.772 77.245 C 220.044 76.805,219.025 75.908,218.663 76.270 M216.371 79.069 C 216.128 79.691,215.679 80.650,215.372 81.200 C 215.065 81.750,214.537 82.830,214.197 83.600 C 213.858 84.370,213.407 85.270,213.194 85.600 C 212.982 85.930,212.443 86.875,211.996 87.700 C 210.503 90.457,207.513 89.222,206.096 85.262 C 205.818 84.487,205.332 83.566,205.014 83.216 C 204.697 82.866,204.204 81.866,203.919 80.995 C 203.618 80.077,203.105 79.354,202.700 79.276 C 201.783 79.100,201.747 82.640,202.642 85.000 C 204.220 89.163,204.044 91.151,202.040 91.787 C 201.001 92.117,198.793 94.876,197.229 97.800 L 195.945 100.200 196.072 105.807 L 196.200 111.414 194.741 113.613 C 193.214 115.915,191.977 116.581,187.300 117.622 C 182.406 118.711,179.741 119.337,174.400 120.655 C 172.970 121.008,170.270 121.618,168.400 122.011 C 166.530 122.405,164.116 123.013,163.036 123.363 C 161.956 123.713,160.696 123.999,160.236 123.998 C 159.776 123.997,157.960 124.426,156.200 124.950 C 154.440 125.475,152.190 126.120,151.200 126.383 C 144.693 128.116,139.925 129.680,136.960 131.054 C 135.838 131.574,134.668 132.001,134.360 132.001 C 134.052 132.002,133.248 132.340,132.572 132.752 C 131.897 133.163,130.907 133.631,130.372 133.790 C 128.681 134.295,123.101 138.038,121.455 139.774 C 120.276 141.016,118.400 144.804,118.400 145.940 C 118.400 150.824,125.589 158.399,131.785 160.043 C 132.673 160.279,134.480 160.844,135.800 161.300 C 138.502 162.231,155.918 162.517,159.600 161.691 C 171.051 159.119,175.114 156.418,190.188 141.353 C 193.639 137.904,194.395 137.588,195.986 138.927 C 198.439 140.991,219.435 140.783,223.176 138.658 L 224.897 137.681 228.926 141.706 C 231.141 143.920,235.326 147.749,238.226 150.215 C 241.126 152.681,243.865 155.037,244.311 155.450 C 246.458 157.433,251.775 160.000,253.736 160.000 C 254.221 160.000,255.873 160.374,257.409 160.831 C 260.746 161.825,275.383 162.376,279.200 161.651 C 286.788 160.210,291.496 158.119,294.966 154.648 C 301.651 147.964,301.454 142.649,294.315 137.087 C 292.303 135.519,285.893 132.000,285.049 132.000 C 284.831 132.000,283.921 131.652,283.026 131.226 C 280.960 130.243,277.333 128.944,274.000 127.994 C 272.570 127.586,270.590 126.979,269.600 126.644 C 266.976 125.758,263.480 124.834,259.488 123.973 C 257.557 123.557,255.667 123.053,255.288 122.855 C 254.910 122.656,253.250 122.272,251.600 122.002 C 249.950 121.731,247.995 121.260,247.255 120.956 C 246.515 120.652,244.805 120.228,243.455 120.015 C 242.105 119.801,239.650 119.277,238.000 118.850 C 236.350 118.423,233.830 117.780,232.400 117.422 C 225.700 115.746,225.543 115.647,223.796 111.991 C 222.768 109.840,222.696 109.443,223.123 108.263 C 224.839 103.516,223.186 97.700,218.860 93.275 C 215.316 89.649,215.092 88.258,217.264 83.350 C 218.115 81.425,218.140 78.374,217.306 78.100 C 217.034 78.010,216.613 78.446,216.371 79.069 M203.279 81.824 C 203.370 82.608,203.300 83.338,203.123 83.448 C 202.945 83.558,202.800 82.917,202.800 82.024 C 202.800 80.019,203.056 79.913,203.279 81.824 M215.408 86.355 C 214.880 90.413,214.987 90.783,217.322 92.983 C 220.675 96.141,221.146 96.852,221.990 100.025 C 222.939 103.592,222.975 104.795,222.209 107.318 C 221.584 109.379,221.788 111.544,222.638 111.870 C 222.926 111.980,223.362 112.679,223.607 113.422 C 224.079 114.851,226.063 116.800,227.045 116.800 C 227.366 116.800,228.066 117.087,228.600 117.437 C 229.135 117.787,230.946 118.245,232.625 118.453 C 234.303 118.661,236.086 119.100,236.587 119.428 C 237.087 119.756,239.061 120.202,240.973 120.419 C 242.885 120.637,244.859 121.082,245.359 121.410 C 245.859 121.738,247.757 122.193,249.575 122.421 C 251.394 122.649,253.283 123.098,253.772 123.419 C 254.262 123.740,256.043 124.177,257.730 124.391 C 259.417 124.605,261.209 125.050,261.712 125.379 C 262.215 125.709,263.961 126.168,265.593 126.399 C 267.224 126.630,268.859 127.091,269.226 127.423 C 269.593 127.756,271.040 128.212,272.442 128.438 C 273.843 128.663,275.277 129.108,275.628 129.425 C 275.979 129.743,277.323 130.198,278.615 130.437 C 279.907 130.675,281.152 131.118,281.382 131.420 C 281.612 131.722,282.656 132.157,283.702 132.387 C 284.748 132.616,285.963 133.163,286.402 133.602 C 286.841 134.041,287.628 134.400,288.151 134.400 C 288.674 134.400,289.349 134.699,289.651 135.065 C 289.953 135.431,290.946 136.061,291.857 136.465 C 292.769 136.869,293.618 137.470,293.745 137.800 C 293.871 138.130,294.167 138.400,294.401 138.400 C 294.998 138.400,297.598 141.064,297.609 141.687 C 297.614 141.969,297.970 142.650,298.400 143.200 C 299.409 144.490,299.410 146.437,298.401 148.090 C 297.962 148.811,297.602 149.699,297.601 150.064 C 297.601 150.429,296.448 151.869,295.040 153.264 C 291.539 156.732,291.069 157.088,289.379 157.555 C 288.568 157.779,287.609 158.230,287.246 158.558 C 286.884 158.886,285.330 159.347,283.793 159.582 C 282.257 159.817,280.190 160.323,279.200 160.705 C 276.638 161.694,264.737 161.691,261.800 160.700 C 260.700 160.329,258.183 159.830,256.206 159.590 C 254.230 159.350,252.337 158.905,252.000 158.600 C 251.664 158.296,250.635 157.877,249.714 157.670 C 248.070 157.301,246.438 156.284,244.623 154.500 C 244.120 154.005,243.576 153.600,243.415 153.600 C 243.253 153.600,242.636 153.105,242.044 152.500 C 240.843 151.273,237.643 148.429,235.403 146.600 C 234.596 145.940,231.978 143.464,229.587 141.098 L 225.239 136.796 223.119 137.643 C 221.954 138.109,220.460 138.694,219.800 138.945 C 219.014 139.243,214.993 139.400,208.154 139.400 L 197.707 139.400 196.505 138.113 C 194.683 136.162,193.690 136.658,187.783 142.474 C 181.799 148.366,178.790 151.200,178.518 151.200 C 178.327 151.200,173.320 155.335,171.949 156.625 C 171.590 156.962,170.651 157.416,169.862 157.634 C 169.073 157.852,168.177 158.280,167.871 158.586 C 167.566 158.891,165.952 159.331,164.286 159.563 C 162.619 159.795,160.478 160.303,159.528 160.692 C 156.906 161.766,138.845 161.752,136.870 160.674 C 136.138 160.275,134.538 159.785,133.315 159.586 C 132.091 159.387,130.788 158.951,130.419 158.617 C 130.050 158.283,129.130 157.800,128.374 157.544 C 126.854 157.029,126.637 156.863,123.887 154.113 C 120.973 151.200,120.945 151.158,120.238 148.698 C 119.085 144.685,120.972 140.243,124.660 138.290 C 125.397 137.900,126.000 137.423,126.000 137.230 C 126.000 137.036,126.548 136.687,127.219 136.453 C 127.889 136.220,128.903 135.662,129.473 135.214 C 130.042 134.766,130.819 134.400,131.200 134.400 C 131.581 134.400,132.336 134.051,132.878 133.625 C 133.420 133.198,134.389 132.734,135.032 132.592 C 136.804 132.202,138.400 131.540,138.400 131.194 C 138.400 131.024,139.506 130.691,140.858 130.453 C 142.209 130.214,143.607 129.756,143.963 129.434 C 144.319 129.112,145.754 128.664,147.153 128.439 C 148.552 128.213,150.118 127.753,150.633 127.415 C 151.148 127.078,152.876 126.616,154.472 126.390 C 156.068 126.163,157.758 125.726,158.228 125.419 C 158.697 125.111,160.466 124.667,162.157 124.431 C 163.849 124.196,165.774 123.724,166.434 123.382 C 167.095 123.040,169.061 122.598,170.803 122.400 C 172.544 122.201,174.381 121.770,174.885 121.442 C 175.388 121.114,177.315 120.657,179.166 120.426 C 181.017 120.195,182.928 119.746,183.412 119.429 C 183.896 119.112,185.442 118.732,186.846 118.586 C 189.036 118.357,191.258 117.650,193.573 116.445 C 193.889 116.281,194.339 115.799,194.573 115.373 C 194.808 114.948,195.201 114.469,195.448 114.309 C 196.435 113.668,197.738 109.248,197.149 108.538 C 194.452 105.289,198.106 95.476,203.351 91.881 C 204.334 91.208,204.400 90.963,204.400 88.005 C 204.400 84.393,204.838 83.666,205.507 86.168 C 207.048 91.929,212.605 91.254,214.398 85.088 C 215.070 82.775,215.762 83.642,215.408 86.355 M188.047 164.144 C 187.221 165.139,186.409 168.570,186.404 171.085 L 186.400 173.569 188.100 173.999 C 189.035 174.235,190.539 174.697,191.442 175.025 C 192.345 175.353,194.505 175.789,196.242 175.992 C 197.979 176.196,201.650 176.659,204.400 177.022 C 212.463 178.085,226.343 176.855,231.300 174.639 C 233.993 173.434,234.185 172.556,232.874 167.433 C 231.913 163.679,231.824 163.645,225.927 164.819 C 220.289 165.942,202.679 166.225,198.600 165.260 C 192.311 163.771,188.675 163.386,188.047 164.144 M194.644 165.497 C 196.932 166.531,225.926 166.570,227.800 165.542 C 230.547 164.034,231.358 164.324,231.686 166.929 C 231.847 168.210,232.162 169.920,232.387 170.729 C 232.996 172.922,232.930 173.097,231.300 173.614 C 230.475 173.875,229.387 174.349,228.881 174.666 C 226.185 176.359,196.293 176.537,194.286 174.872 C 193.784 174.455,191.452 173.842,188.700 173.403 C 186.709 173.085,186.701 171.519,188.654 164.846 C 188.867 164.118,192.456 164.509,194.644 165.497 M191.803 201.992 C 191.358 203.392,199.280 212.000,201.013 212.000 C 201.162 212.000,201.780 212.417,202.386 212.927 C 207.775 217.462,216.675 214.783,224.657 206.224 C 228.782 201.800,228.770 201.793,218.610 202.379 C 210.661 202.838,200.394 202.488,195.227 201.581 C 192.272 201.063,192.091 201.085,191.803 201.992 M201.000 203.025 C 207.406 204.221,215.920 204.162,223.238 202.870 C 225.572 202.458,226.784 202.783,225.839 203.568 C 225.487 203.859,225.200 204.334,225.200 204.622 C 225.200 204.910,224.849 205.257,224.420 205.394 C 223.992 205.530,223.533 205.983,223.400 206.400 C 223.267 206.817,222.817 207.267,222.400 207.400 C 221.983 207.533,221.530 207.992,221.394 208.420 C 221.257 208.849,220.894 209.200,220.587 209.200 C 220.279 209.200,219.413 209.740,218.661 210.400 C 217.909 211.060,217.150 211.600,216.973 211.600 C 216.796 211.600,216.260 211.968,215.781 212.418 C 213.925 214.162,205.052 214.309,203.367 212.624 C 203.013 212.271,202.201 211.711,201.562 211.380 C 200.923 211.050,200.400 210.616,200.400 210.417 C 200.400 210.217,200.083 209.953,199.695 209.830 C 199.084 209.636,198.044 208.660,193.307 203.831 C 191.727 202.222,194.909 201.888,201.000 203.025 " stroke="none" fill="#6c643c" fill-rule="evenodd"></path></g></svg>